<svg width="76" height="52" viewBox="0 0 76 52" fill="none" xmlns="http://www.w3.org/2000/svg">
<path d="M20.47 52.7C25.6015 52.7 30.7398 51.1002 34.6134 47.8553C38.5094 44.5916 41.07 39.707 41.07 33.29H39.07C39.07 39.123 36.7656 43.4434 33.3291 46.3222C29.8702 49.2198 25.2085 50.7 20.47 50.7V52.7ZM41.07 33.29V19.01H39.07V33.29H41.07ZM41.07 19.01C41.07 12.593 38.5094 7.7084 34.6134 4.44468C30.7398 1.19975 25.6015 -0.400002 20.47 -0.400002V1.6C25.2085 1.6 29.8702 3.08024 33.3291 5.97782C36.7656 8.8566 39.07 13.177 39.07 19.01H41.07ZM20.47 -0.400002C15.3385 -0.400002 10.2002 1.19975 6.32659 4.44468C2.43059 7.7084 -0.13 12.593 -0.13 19.01H1.87C1.87 13.177 4.17442 8.8566 7.61091 5.97782C11.0698 3.08024 15.7315 1.6 20.47 1.6V-0.400002ZM-0.13 19.01V33.29H1.87V19.01H-0.13ZM-0.13 33.29C-0.13 39.707 2.43059 44.5916 6.32659 47.8553C10.2002 51.1002 15.3385 52.7 20.47 52.7V50.7C15.7315 50.7 11.0698 49.2198 7.61091 46.3222C4.17442 43.4434 1.87 39.123 1.87 33.29H-0.13ZM20.47 41.18C15.857 41.18 12.02 38.2202 12.02 33.29H10.02C10.02 39.5598 15.003 43.18 20.47 43.18V41.18ZM12.02 33.29V19.01H10.02V33.29H12.02ZM12.02 19.01C12.02 14.0798 15.857 11.12 20.47 11.12V9.12C15.003 9.12 10.02 12.7402 10.02 19.01H12.02ZM20.47 11.12C22.7775 11.12 24.8769 11.873 26.3861 13.2128C27.8816 14.5405 28.85 16.4881 28.85 19.01H30.85C30.85 15.9319 29.6484 13.4345 27.7139 11.7172C25.7931 10.012 23.2025 9.12 20.47 9.12V11.12ZM28.85 19.01V33.29H30.85V19.01H28.85ZM28.85 33.29C28.85 35.8119 27.8816 37.7595 26.3861 39.0872C24.8769 40.427 22.7775 41.18 20.47 41.18V43.18C23.2025 43.18 25.7931 42.288 27.7139 40.5828C29.6484 38.8655 30.85 36.3681 30.85 33.29H28.85ZM75.7421 51V52H76.7421V51H75.7421ZM75.7421 42.04H76.7421V41.04H75.7421V42.04ZM65.4521 42.04H64.4521V43.04H65.4521V42.04ZM65.4521 1.3H66.4521V0.057601L65.2384 0.323097L65.4521 1.3ZM45.2921 5.71L45.0784 4.7331L44.2921 4.9051V5.71H45.2921ZM45.2921 14.88H44.2921V16.1456L45.5234 15.8529L45.2921 14.88ZM55.3021 12.5H56.3021V11.2344L55.0708 11.5271L55.3021 12.5ZM55.3021 42.04V43.04H56.3021V42.04H55.3021ZM44.9421 42.04V41.04H43.9421V42.04H44.9421ZM44.9421 51H43.9421V52H44.9421V51ZM76.7421 51V42.04H74.7421V51H76.7421ZM75.7421 41.04H65.4521V43.04H75.7421V41.04ZM66.4521 42.04V1.3H64.4521V42.04H66.4521ZM65.2384 0.323097L45.0784 4.7331L45.5058 6.6869L65.6658 2.2769L65.2384 0.323097ZM44.2921 5.71V14.88H46.2921V5.71H44.2921ZM45.5234 15.8529L55.5334 13.4729L55.0708 11.5271L45.0608 13.9071L45.5234 15.8529ZM54.3021 12.5V42.04H56.3021V12.5H54.3021ZM55.3021 41.04H44.9421V43.04H55.3021V41.04ZM43.9421 42.04V51H45.9421V42.04H43.9421ZM44.9421 52H75.7421V50H44.9421V52Z" fill="#3068BB"/>
</svg>
