<svg width="80" height="52" viewBox="0 0 80 52" fill="none" xmlns="http://www.w3.org/2000/svg">
<path d="M20.47 52.7C25.6015 52.7 30.7398 51.1002 34.6134 47.8553C38.5094 44.5916 41.07 39.707 41.07 33.29H39.07C39.07 39.123 36.7656 43.4434 33.3291 46.3222C29.8702 49.2198 25.2085 50.7 20.47 50.7V52.7ZM41.07 33.29V19.01H39.07V33.29H41.07ZM41.07 19.01C41.07 12.593 38.5094 7.7084 34.6134 4.44468C30.7398 1.19975 25.6015 -0.400002 20.47 -0.400002V1.6C25.2085 1.6 29.8702 3.08024 33.3291 5.97782C36.7656 8.8566 39.07 13.177 39.07 19.01H41.07ZM20.47 -0.400002C15.3385 -0.400002 10.2002 1.19975 6.32659 4.44468C2.43059 7.7084 -0.13 12.593 -0.13 19.01H1.87C1.87 13.177 4.17442 8.8566 7.61091 5.97782C11.0698 3.08024 15.7315 1.6 20.47 1.6V-0.400002ZM-0.13 19.01V33.29H1.87V19.01H-0.13ZM-0.13 33.29C-0.13 39.707 2.43059 44.5916 6.32659 47.8553C10.2002 51.1002 15.3385 52.7 20.47 52.7V50.7C15.7315 50.7 11.0698 49.2198 7.61091 46.3222C4.17442 43.4434 1.87 39.123 1.87 33.29H-0.13ZM20.47 41.18C15.857 41.18 12.02 38.2202 12.02 33.29H10.02C10.02 39.5598 15.003 43.18 20.47 43.18V41.18ZM12.02 33.29V19.01H10.02V33.29H12.02ZM12.02 19.01C12.02 14.0798 15.857 11.12 20.47 11.12V9.12C15.003 9.12 10.02 12.7402 10.02 19.01H12.02ZM20.47 11.12C22.7775 11.12 24.8769 11.873 26.3861 13.2128C27.8816 14.5405 28.85 16.4881 28.85 19.01H30.85C30.85 15.9319 29.6484 13.4345 27.7139 11.7172C25.7931 10.012 23.2025 9.12 20.47 9.12V11.12ZM28.85 19.01V33.29H30.85V19.01H28.85ZM28.85 33.29C28.85 35.8119 27.8816 37.7595 26.3861 39.0872C24.8769 40.427 22.7775 41.18 20.47 41.18V43.18C23.2025 43.18 25.7931 42.288 27.7139 40.5828C29.6484 38.8655 30.85 36.3681 30.85 33.29H28.85ZM55.5821 41.48L54.6327 41.1659L54.198 42.48H55.5821V41.48ZM45.0821 16.7H44.0821V17.7H45.0821V16.7ZM55.2321 16.7V17.7H56.1666L56.2298 16.7676L55.2321 16.7ZM45.0821 51H44.0821V52H45.0821V51ZM79.8721 51V52H80.8721V51H79.8721ZM79.8721 41.48H80.8721V40.48H79.8721V41.48ZM56.5315 41.7941C57.1905 39.8022 58.844 38.2412 61.2 36.7528C63.5904 35.2425 66.3887 33.9833 69.3276 32.3733C72.1915 30.8043 75.0633 28.9585 77.2156 26.4038C79.3928 23.8197 80.8021 20.5481 80.8021 16.21H78.8021C78.8021 20.0619 77.569 22.8803 75.6861 25.1152C73.7784 27.3796 71.1727 29.082 68.3666 30.6192C65.6355 32.1155 62.5713 33.5206 60.1317 35.0619C57.6577 36.625 55.5137 38.5028 54.6327 41.1659L56.5315 41.7941ZM80.8021 16.21C80.8021 10.8935 78.7611 6.70949 75.4679 3.86788C72.1925 1.04171 67.7471 -0.400002 63.0021 -0.400002V1.6C67.3571 1.6 71.3117 2.92328 74.1613 5.38211C76.9931 7.82551 78.8021 11.4465 78.8021 16.21H80.8021ZM63.0021 -0.400002C52.1057 -0.400002 44.0821 7.10556 44.0821 16.7H46.0821C46.0821 8.37443 53.0385 1.6 63.0021 1.6V-0.400002ZM45.0821 17.7H55.2321V15.7H45.0821V17.7ZM56.2298 16.7676C56.354 14.9364 57.0755 13.4698 58.1815 12.4596C59.2894 11.4478 60.8426 10.84 62.7221 10.84V8.84C60.4016 8.84 58.3499 9.59721 56.8327 10.9829C55.3137 12.3702 54.3903 14.3335 54.2344 16.6324L56.2298 16.7676ZM62.7221 10.84C64.7496 10.84 66.2199 11.4695 67.1764 12.3831C68.1339 13.2978 68.6521 14.568 68.6521 16H70.6521C70.6521 14.072 69.9453 12.2622 68.5578 10.9369C67.1693 9.61049 65.1747 8.84 62.7221 8.84V10.84ZM68.6521 16C68.6521 18.0802 67.4282 19.728 65.2171 21.369C62.976 23.0323 60.0266 24.4765 56.8692 26.289C50.6902 29.8362 44.0821 34.6255 44.0821 44.35H46.0821C46.0821 35.8045 51.759 31.5288 57.865 28.0235C60.8502 26.3098 64.0432 24.7309 66.409 22.975C68.8048 21.197 70.6521 19.0298 70.6521 16H68.6521ZM44.0821 44.35V51H46.0821V44.35H44.0821ZM45.0821 52H79.8721V50H45.0821V52ZM80.8721 51V41.48H78.8721V51H80.8721ZM79.8721 40.48H55.5821V42.48H79.8721V40.48Z" fill="#3068BB"/>
</svg>
