<svg width="82" height="52" viewBox="0 0 82 52" fill="none" xmlns="http://www.w3.org/2000/svg">
<path d="M20.47 52.7C25.6015 52.7 30.7398 51.1002 34.6134 47.8553C38.5094 44.5916 41.07 39.707 41.07 33.29H39.07C39.07 39.123 36.7656 43.4434 33.3291 46.3222C29.8702 49.2198 25.2085 50.7 20.47 50.7V52.7ZM41.07 33.29V19.01H39.07V33.29H41.07ZM41.07 19.01C41.07 12.593 38.5094 7.7084 34.6134 4.44468C30.7398 1.19975 25.6015 -0.400002 20.47 -0.400002V1.6C25.2085 1.6 29.8702 3.08024 33.3291 5.97782C36.7656 8.8566 39.07 13.177 39.07 19.01H41.07ZM20.47 -0.400002C15.3385 -0.400002 10.2002 1.19975 6.32659 4.44468C2.43059 7.7084 -0.13 12.593 -0.13 19.01H1.87C1.87 13.177 4.17442 8.8566 7.61091 5.97782C11.0698 3.08024 15.7315 1.6 20.47 1.6V-0.400002ZM-0.13 19.01V33.29H1.87V19.01H-0.13ZM-0.13 33.29C-0.13 39.707 2.43059 44.5916 6.32659 47.8553C10.2002 51.1002 15.3385 52.7 20.47 52.7V50.7C15.7315 50.7 11.0698 49.2198 7.61091 46.3222C4.17442 43.4434 1.87 39.123 1.87 33.29H-0.13ZM20.47 41.18C15.857 41.18 12.02 38.2202 12.02 33.29H10.02C10.02 39.5598 15.003 43.18 20.47 43.18V41.18ZM12.02 33.29V19.01H10.02V33.29H12.02ZM12.02 19.01C12.02 14.0798 15.857 11.12 20.47 11.12V9.12C15.003 9.12 10.02 12.7402 10.02 19.01H12.02ZM20.47 11.12C22.7775 11.12 24.8769 11.873 26.3861 13.2128C27.8816 14.5405 28.85 16.4881 28.85 19.01H30.85C30.85 15.9319 29.6484 13.4345 27.7139 11.7172C25.7931 10.012 23.2025 9.12 20.47 9.12V11.12ZM28.85 19.01V33.29H30.85V19.01H28.85ZM28.85 33.29C28.85 35.8119 27.8816 37.7595 26.3861 39.0872C24.8769 40.427 22.7775 41.18 20.47 41.18V43.18C23.2025 43.18 25.7931 42.288 27.7139 40.5828C29.6484 38.8655 30.85 36.3681 30.85 33.29H28.85ZM74.6221 24.61L73.9745 23.8481L72.8493 24.8044L74.155 25.4942L74.6221 24.61ZM45.0121 16.91H44.0121V17.91H45.0121V16.91ZM54.8821 16.91V17.91H55.8821V16.91H54.8821ZM62.4421 21.11V22.11H62.4691L62.4961 22.1085L62.4421 21.11ZM58.3121 21.11V20.11H57.3121V21.11H58.3121ZM58.3121 29.86H57.3121V30.86H58.3121V29.86ZM54.3921 34.83H55.3921V33.83H54.3921V34.83ZM44.5221 34.83V33.83H43.5221V34.83H44.5221ZM75.2698 25.3719C78.2754 22.8172 80.2421 19.1861 80.2421 14.6H78.2421C78.2421 18.5539 76.5688 21.6428 73.9745 23.8481L75.2698 25.3719ZM80.2421 14.6C80.2421 5.87039 73.0078 -0.400002 62.9321 -0.400002V1.6C72.1764 1.6 78.2421 7.2296 78.2421 14.6H80.2421ZM62.9321 -0.400002C57.0068 -0.400002 52.2644 1.51284 48.9977 4.67666C45.7328 7.83858 44.0121 12.1832 44.0121 16.91H46.0121C46.0121 12.6768 47.5464 8.86642 50.3891 6.11334C53.2298 3.36215 57.4474 1.6 62.9321 1.6V-0.400002ZM45.0121 17.91H54.8821V15.91H45.0121V17.91ZM55.8821 16.91C55.8821 14.9452 56.6249 13.4557 57.7736 12.4461C58.9371 11.4234 60.5805 10.84 62.4421 10.84V8.84C60.1737 8.84 58.0371 9.55163 56.4532 10.9439C54.8543 12.3493 53.8821 14.3948 53.8821 16.91H55.8821ZM62.4421 10.84C64.2946 10.84 65.7091 11.3504 66.6426 12.1425C67.5606 12.9214 68.0921 14.0361 68.0921 15.44H70.0921C70.0921 13.4839 69.3286 11.7986 67.9366 10.6175C66.5602 9.44961 64.6496 8.84 62.4421 8.84V10.84ZM68.0921 15.44C68.0921 16.3539 67.7909 17.4453 66.9739 18.3327C66.17 19.2059 64.7733 19.9825 62.3881 20.1115L62.4961 22.1085C65.291 21.9575 67.2192 21.0191 68.4453 19.6873C69.6584 18.3697 70.0921 16.7661 70.0921 15.44H68.0921ZM62.4421 20.11H58.3121V22.11H62.4421V20.11ZM57.3121 21.11V29.86H59.3121V21.11H57.3121ZM58.3121 30.86H62.1621V28.86H58.3121V30.86ZM62.1621 30.86C64.7492 30.86 66.711 31.2743 67.9977 32.0878C69.207 32.8522 69.9121 34.0244 69.9121 35.88H71.9121C71.9121 33.3956 70.9022 31.5578 69.0665 30.3972C67.3082 29.2857 64.8951 28.86 62.1621 28.86V30.86ZM69.9121 35.88C69.9121 37.6028 69.2734 38.9544 68.1325 39.8945C66.9698 40.8524 65.1886 41.46 62.7921 41.46V43.46C65.5056 43.46 67.7844 42.7726 69.4042 41.438C71.0458 40.0856 71.9121 38.1472 71.9121 35.88H69.9121ZM62.7921 41.46C60.902 41.46 59.0373 41.0008 57.671 39.9723C56.348 38.9764 55.3921 37.3747 55.3921 34.83H53.3921C53.3921 37.9553 54.6063 40.1686 56.4682 41.5702C58.2869 42.9392 60.6223 43.46 62.7921 43.46V41.46ZM54.3921 33.83H44.5221V35.83H54.3921V33.83ZM43.5221 34.83C43.5221 39.989 45.4446 44.4813 48.93 47.6771C52.4097 50.8675 57.3731 52.7 63.3521 52.7V50.7C57.7812 50.7 53.3296 48.9975 50.2817 46.2029C47.2396 43.4137 45.5221 39.471 45.5221 34.83H43.5221ZM63.3521 52.7C75.4203 52.7 82.0621 44.5157 82.0621 36.44H80.0621C80.0621 43.3442 74.3839 50.7 63.3521 50.7V52.7ZM82.0621 36.44C82.0621 29.9969 79.1424 25.8671 75.0892 23.7258L74.155 25.4942C77.5219 27.2729 80.0621 30.703 80.0621 36.44H82.0621Z" fill="#3068BB"/>
</svg>
