<svg width="59" height="58" viewBox="0 0 59 58" fill="none" xmlns="http://www.w3.org/2000/svg">
<path d="M3 38.6814L1.93934 37.6208L0.87868 38.6814L1.93934 39.7421L3 38.6814ZM34.5492 7.1322L34.7456 5.64512L34.0119 5.54821L33.4886 6.07154L34.5492 7.1322ZM19.3186 55L18.2579 56.0607L19.3186 57.1213L20.3792 56.0607L19.3186 55ZM48.964 9.03603L50.451 8.83963L50.3005 7.69953L49.1604 7.54895L48.964 9.03603ZM50.8678 23.4508L51.9285 24.5114L52.4518 23.9881L52.3549 23.2544L50.8678 23.4508ZM21.222 29.1622L20.1613 28.1016H20.1613L21.222 29.1622ZM19.0717 31.3126L20.1323 32.3732H20.1323L19.0717 31.3126ZM19.0717 31.3636L18.011 32.4242L18.011 32.4242L19.0717 31.3636ZM25.6008 40.014C26.1866 40.5998 27.1364 40.5998 27.7222 40.0141C28.308 39.4283 28.308 38.4785 27.7222 37.8927L25.6008 40.014ZM25.0297 32.9699L26.0903 34.0306L25.0297 32.9699ZM30.7928 36.3729C31.6208 36.3443 32.2688 35.65 32.2403 34.8221C32.2117 33.9941 31.5174 33.3461 30.6895 33.3746L30.7928 36.3729ZM12.7906 37.5935L13.8513 38.6542L12.7906 37.5935ZM12.7906 38.6814L13.8513 37.6208L12.7906 38.6814ZM16.0543 41.9451L14.9937 43.0058L16.0543 41.9451ZM19.0733 47.0854C19.6591 47.6712 20.6088 47.6712 21.1946 47.0854C21.7804 46.4996 21.7804 45.5499 21.1946 44.9641L19.0733 47.0854ZM33.189 17.1953L32.1283 16.1346L33.189 17.1953ZM33.189 18.2832L34.2496 17.2225L34.2496 17.2225L33.189 18.2832ZM36.4527 21.5469L35.392 22.6076V22.6076L36.4527 21.5469ZM39.7164 24.8106L40.7771 23.75V23.75L39.7164 24.8106ZM4.06066 39.7421L35.6099 8.19286L33.4886 6.07154L1.93934 37.6208L4.06066 39.7421ZM20.3792 53.9393L4.06066 37.6208L1.93934 39.7421L18.2579 56.0607L20.3792 53.9393ZM34.3528 8.61929L48.7676 10.5231L49.1604 7.54895L34.7456 5.64512L34.3528 8.61929ZM47.4769 9.23244L49.3807 23.6472L52.3549 23.2544L50.451 8.83963L47.4769 9.23244ZM49.8071 22.3901L42.7358 29.4615L44.8571 31.5828L51.9285 24.5114L49.8071 22.3901ZM20.1613 28.1016L18.011 30.2519L20.1323 32.3732L22.2826 30.2229L20.1613 28.1016ZM18.011 32.4242L21.7932 36.2064L23.9145 34.0851L20.1323 30.3029L18.011 32.4242ZM21.7932 36.2064L25.6008 40.014L27.7222 37.8927L23.9145 34.0851L21.7932 36.2064ZM23.969 31.9093L21.7932 34.0851L23.9145 36.2064L26.0903 34.0306L23.969 31.9093ZM30.6895 33.3746L22.8022 33.6466L22.9055 36.6448L30.7928 36.3729L30.6895 33.3746ZM23.969 30.2229C24.4347 30.6886 24.4347 31.4436 23.969 31.9093L26.0903 34.0306C27.7276 32.3933 27.7276 29.7388 26.0903 28.1016L23.969 30.2229ZM18.011 30.2519C17.4113 30.8517 17.411 31.8242 18.011 32.4242L20.1323 30.3029C20.7041 30.8747 20.7039 31.8016 20.1323 32.3732L18.011 30.2519ZM22.2826 30.2229C22.7483 29.7572 23.5033 29.7572 23.969 30.2229L26.0903 28.1016C24.4531 26.4643 21.7986 26.4643 20.1613 28.1016L22.2826 30.2229ZM15.2656 32.9972L11.7299 36.5329L13.8513 38.6542L17.387 35.1185L15.2656 32.9972ZM11.7299 39.7421L14.9937 43.0058L17.115 40.8845L13.8513 37.6208L11.7299 39.7421ZM14.9937 43.0058L19.0733 47.0854L21.1946 44.9641L17.115 40.8845L14.9937 43.0058ZM11.7299 36.5329C10.8437 37.4191 10.8437 38.8559 11.7299 39.7421L13.8513 37.6208C14.1366 37.9061 14.1366 38.3688 13.8513 38.6542L11.7299 36.5329ZM17.115 43.0058L21.1946 38.9262L19.0733 36.8048L14.9937 40.8845L17.115 43.0058ZM29.1365 19.1264L25.6008 22.6621L27.7222 24.7834L31.2579 21.2477L29.1365 19.1264ZM25.6008 25.8713L28.8646 29.135L30.9859 27.0137L27.7222 23.75L25.6008 25.8713ZM25.6008 22.6621C24.7146 23.5483 24.7146 24.9851 25.6008 25.8713L27.7222 23.75C28.0075 24.0353 28.0075 24.498 27.7222 24.7834L25.6008 22.6621ZM36.7519 26.7417L33.2162 30.2774L35.3375 32.3987L38.8732 28.863L36.7519 26.7417ZM34.2496 30.2774L30.9859 27.0137L28.8646 29.135L32.1283 32.3987L34.2496 30.2774ZM33.2162 30.2774C33.5015 29.992 33.9642 29.992 34.2496 30.2774L32.1283 32.3987C33.0145 33.2849 34.4513 33.2849 35.3375 32.3987L33.2162 30.2774ZM30.9859 29.135L35.0655 25.0554L32.9442 22.934L28.8646 27.0137L30.9859 29.135ZM35.664 12.599L32.1283 16.1346L34.2496 18.256L37.7853 14.7203L35.664 12.599ZM32.1283 19.3439L35.392 22.6076L37.5134 20.4863L34.2496 17.2225L32.1283 19.3439ZM32.1283 16.1346C31.2421 17.0208 31.2421 18.4577 32.1283 19.3439L34.2496 17.2225C34.535 17.5079 34.535 17.9706 34.2496 18.256L32.1283 16.1346ZM43.2793 20.2143L39.7437 23.75L41.865 25.8713L45.4007 22.3356L43.2793 20.2143ZM40.7771 23.75L37.5134 20.4863L35.392 22.6076L38.6558 25.8713L40.7771 23.75ZM39.7437 23.75C40.029 23.4646 40.4917 23.4646 40.7771 23.75L38.6558 25.8713C39.542 26.7575 40.9788 26.7575 41.865 25.8713L39.7437 23.75ZM37.5134 22.6076L41.593 18.5279L39.4717 16.4066L35.392 20.4863L37.5134 22.6076ZM53.3426 5.20113C55.6108 7.4693 55.6108 11.1467 53.3426 13.4149L55.4639 15.5362C58.9037 12.0965 58.9037 6.51955 55.4639 3.07981L53.3426 5.20113ZM45.1289 13.4149C42.8607 11.1467 42.8607 7.4693 45.1289 5.20113L43.0075 3.07981C39.5678 6.51955 39.5678 12.0965 43.0075 15.5362L45.1289 13.4149ZM45.1289 5.20113C47.397 2.93296 51.0745 2.93296 53.3426 5.20113L55.4639 3.07981C52.0242 -0.359936 46.4473 -0.359935 43.0075 3.07981L45.1289 5.20113ZM53.3426 13.4149C52.3912 14.3663 51.1959 14.9172 49.958 15.0713L50.3285 18.0483C52.2054 17.8148 54.0239 16.9762 55.4639 15.5362L53.3426 13.4149ZM39.7437 32.4536L18.2579 53.9393L20.3792 56.0607L41.865 34.5749L39.7437 32.4536Z" fill="#CF2C31"/>
</svg>
