<svg width="128" height="68" viewBox="0 0 128 68" fill="none" xmlns="http://www.w3.org/2000/svg">
<path d="M11.3235 41.8072L4.06484 30.7884H0V53.8476H4.06484V37.5748L11.3235 48.5936L18.5821 37.5748V53.8476H22.647V30.7884H18.5821L11.3235 41.8072Z" fill="#CF2C31"/>
<path d="M27.5135 30.7884H31.8687L38.1111 40.5264L44.3536 30.7884H48.7087L40.2887 43.9234V53.8476H35.9335V43.9234L27.5135 30.7884Z" fill="#CF2C31"/>
<path d="M62.2467 30.6447V34.4393H69.5053V53.704H73.5701V34.4393H80.5384V30.6447H62.2467Z" fill="#002768"/>
<path d="M69.3477 67.6199C69.8421 67.8544 70.4337 67.9717 71.1226 67.9717C72.0952 67.9717 72.8611 67.7453 73.4203 67.2924C73.9796 66.8395 74.2592 66.2168 74.2592 65.4242C74.2592 64.9794 74.1862 64.6074 74.0403 64.3082C73.8945 64.0008 73.6999 63.7501 73.4568 63.556C73.2217 63.3619 72.9584 63.2042 72.6666 63.0829C72.3829 62.9616 72.0952 62.8524 71.8034 62.7554C71.5198 62.6583 71.2564 62.5572 71.0132 62.4521C70.7782 62.347 70.5877 62.2216 70.4418 62.0761C70.296 61.9305 70.223 61.7404 70.223 61.5059C70.223 61.2309 70.3324 61.0207 70.5512 60.8751C70.7701 60.7295 71.07 60.6567 71.4509 60.6567C71.7832 60.6567 72.079 60.7214 72.3383 60.8508C72.6058 60.9802 72.8651 61.1824 73.1164 61.4574L74.2105 60.3656C73.9107 60.0178 73.5257 59.7348 73.0556 59.5164C72.5855 59.2981 72.0587 59.1889 71.4752 59.1889C70.9241 59.1889 70.4297 59.2859 69.992 59.48C69.5544 59.6741 69.2099 59.9531 68.9587 60.3171C68.7074 60.681 68.5818 61.1217 68.5818 61.6393C68.5818 62.0761 68.6547 62.44 68.8006 62.7311C68.9465 63.0141 69.137 63.2487 69.372 63.4347C69.6151 63.6126 69.8785 63.7623 70.1622 63.8835C70.454 64.0049 70.7417 64.114 71.0254 64.2111C71.3171 64.3 71.5806 64.4012 71.8156 64.5144C72.0587 64.6276 72.2532 64.7651 72.3991 64.9268C72.545 65.0885 72.618 65.2988 72.618 65.5576C72.618 65.8569 72.4883 66.0914 72.2289 66.2612C71.9777 66.431 71.6373 66.516 71.2077 66.516C70.7295 66.516 70.3243 66.427 69.992 66.2491C69.6597 66.0631 69.368 65.8043 69.1167 65.4727L68.0226 66.5645C68.4197 67.0335 68.8614 67.3854 69.3477 67.6199Z" fill="#CF2C31"/>
<path d="M0 67.8504V59.3223H1.65337V62.719H5.36129V59.3223H7.01466V67.8504H5.36129V64.1747H1.65337V67.8504H0Z" fill="#CF2C31"/>
<path d="M12.7127 67.8504V59.3223H18.5968V60.778H14.3661V62.7918H18.2321V64.1989H14.3661V66.3946H18.6576V67.8504H12.7127Z" fill="#CF2C31"/>
<path d="M23.9771 59.3223V67.8504H29.545V66.3825H25.6304V59.3223H23.9771Z" fill="#CF2C31"/>
<path fill-rule="evenodd" clip-rule="evenodd" d="M36.3368 67.8504V64.6842H38.0509C38.5939 64.6842 39.0802 64.575 39.5098 64.3567C39.9474 64.1383 40.2919 63.831 40.5431 63.4347C40.7944 63.0303 40.92 62.5532 40.92 62.0033C40.92 61.4533 40.7944 60.9802 40.5431 60.5839C40.2919 60.1795 39.9474 59.8682 39.5098 59.6498C39.0802 59.4315 38.5939 59.3223 38.0509 59.3223H34.6834V67.8504H36.3368ZM37.8807 63.3377H36.3368V60.6688H37.8807C38.1401 60.6688 38.3751 60.7214 38.5858 60.8266C38.7966 60.9317 38.9627 61.0853 39.0843 61.2875C39.2058 61.4897 39.2666 61.7283 39.2666 62.0033C39.2666 62.2863 39.2058 62.5289 39.0843 62.7311C38.9627 62.9252 38.7966 63.0748 38.5858 63.1799C38.3751 63.2851 38.1401 63.3377 37.8807 63.3377Z" fill="#CF2C31"/>
<path d="M46.0427 59.3223V67.8504H51.9875V66.3946H47.6961V64.1989H51.562V62.7918H47.6961V60.778H51.9267V59.3223H46.0427Z" fill="#CF2C31"/>
<path fill-rule="evenodd" clip-rule="evenodd" d="M58.9604 67.8504V64.2839H59.2477L61.9754 67.8504H63.9813L61.124 64.255C61.4812 64.2119 61.8055 64.1204 62.0969 63.9806C62.5184 63.7703 62.8426 63.4832 63.0695 63.1193C63.3045 62.7473 63.4221 62.3106 63.4221 61.8092C63.4221 61.3239 63.3045 60.8953 63.0695 60.5233C62.8426 60.1513 62.5184 59.8601 62.0969 59.6498C61.6836 59.4315 61.2014 59.3223 60.6502 59.3223H57.307V67.8504H58.9604ZM60.5043 62.998H58.9604V60.6688H60.5043C60.9096 60.6688 61.2216 60.7821 61.4404 61.0085C61.6674 61.2269 61.7808 61.5018 61.7808 61.8334C61.7808 62.1973 61.6674 62.4844 61.4404 62.6947C61.2216 62.8969 60.9096 62.998 60.5043 62.998Z" fill="#CF2C31"/>
<path fill-rule="evenodd" clip-rule="evenodd" d="M104.077 53.6996L94.2482 30.6447H89.88L80.0516 53.6996H84.4198L86.7601 48.2104H97.3681L99.7084 53.6996H104.077ZM95.85 44.6493L92.0641 35.7681L88.2782 44.6493H95.85Z" fill="#002768"/>
<path d="M116.96 38.9925C78.8187 -19.6835 23.3397 2.38246 0.381257 20.8311C65.4235 -19.5256 101.073 20.8615 116.96 45.2048L127.362 30.6576H123.036L116.96 38.9925Z" fill="#CF2C31"/>
<path d="M113.833 43.4743L106.505 53.7041H110.891L115.944 46.6496L115.591 46.1083C115.029 45.2479 114.444 44.3685 113.833 43.4743Z" fill="#002768"/>
<path d="M117.958 46.6317L120.148 43.5678L127.41 53.7041H123.024L117.958 46.6317Z" fill="#002768"/>
<path d="M116.96 38.9925C78.8187 -19.6835 23.3397 2.38246 0.381257 20.8311C65.4235 -19.5256 101.073 20.8615 116.96 45.2048L127.362 30.6576H123.036L116.96 38.9925Z" fill="#CF2C31"/>
<path d="M80.0516 62.8295H127.41V64.236H80.0516V62.8295Z" fill="#CF2C31"/>
</svg>
