<svg width="90" height="51" viewBox="0 0 90 51" fill="none" xmlns="http://www.w3.org/2000/svg">
<path d="M15.9881 25.247L10.9286 17.6071H8.09524V33.5952H10.9286V22.3125L15.9881 29.9524L21.0476 22.3125V33.5952H23.881V17.6071H21.0476L15.9881 25.247Z" fill="white"/>
<path d="M26.5119 17.6071H29.5476L33.8988 24.359L38.25 17.6071H41.2857L35.4167 26.7143V33.5952H32.381V26.7143L26.5119 17.6071Z" fill="white"/>
<path d="M2.83333 2.83333H48.1667V16.7976H51V0H0V51H51V34.4048H48.1667V48.1667H2.83333V2.83333Z" fill="white"/>
<path d="M63.75 33.5952L58.8929 26.006L63.5476 28.7381L74.375 16.5952L63.75 33.5952Z" fill="white"/>
<path d="M58.3596 26.8401L55.4524 33.595H58.2857L60.0672 29.4558L58.3596 26.8401Z" fill="white"/>
<path d="M61.3433 26.4907L59.0869 25.1502L62.3334 17.6069H64.9643L67.3811 23.2223L65.4701 25.3655L63.6488 21.1337L61.3433 26.4907Z" fill="white"/>
<path d="M67.2554 29.5138L69.0119 33.595H71.8453L68.9334 26.8291L67.2554 29.5138Z" fill="white"/>
<path d="M89.0477 17.6069H85.9907L81.7619 23.4787L77.5332 17.6069H74.4762L80.2335 25.601L74.4762 33.595H77.5332L81.7619 27.7233L85.9907 33.595H89.0477L83.2904 25.601L89.0477 17.6069Z" fill="white"/>
<path d="M43.1072 17.6069V20.2379H48.1667V33.595H51V20.2379H55.8572V17.6069H43.1072Z" fill="white"/>
<path d="M86.8256 39.1077C87.0493 39.2104 87.317 39.2617 87.6286 39.2617C88.0686 39.2617 88.4151 39.1626 88.6681 38.9643C88.9211 38.766 89.0476 38.4934 89.0476 38.1464C89.0476 37.9517 89.0146 37.7888 88.9486 37.6578C88.8826 37.5232 88.7946 37.4135 88.6846 37.3285C88.5783 37.2435 88.4591 37.1745 88.3271 37.1214C88.1988 37.0683 88.0686 37.0204 87.9366 36.978C87.8083 36.9355 87.6891 36.8912 87.5791 36.8452C87.4728 36.7992 87.3867 36.7443 87.3206 36.6806C87.2547 36.6168 87.2216 36.5336 87.2216 36.4309C87.2216 36.3106 87.2711 36.2185 87.3701 36.1547C87.4691 36.091 87.6048 36.0591 87.7771 36.0591C87.9275 36.0591 88.0613 36.0875 88.1786 36.1441C88.2996 36.2008 88.417 36.2893 88.5306 36.4097L89.0256 35.9317C88.89 35.7794 88.7158 35.6555 88.5031 35.5599C88.2905 35.4643 88.0521 35.4165 87.7881 35.4165C87.5388 35.4165 87.3151 35.459 87.1171 35.544C86.9192 35.6289 86.7633 35.7511 86.6497 35.9104C86.536 36.0698 86.4792 36.2627 86.4792 36.4893C86.4792 36.6806 86.5122 36.8399 86.5782 36.9673C86.6442 37.0913 86.7303 37.1939 86.8367 37.2754C86.9466 37.3533 87.0658 37.4188 87.1941 37.4719C87.3261 37.525 87.4563 37.5728 87.5846 37.6153C87.7166 37.6542 87.8358 37.6985 87.9421 37.7481C88.0521 37.7976 88.1401 37.8578 88.2061 37.9287C88.2721 37.9995 88.3051 38.0915 88.3051 38.2048C88.3051 38.3358 88.2465 38.4385 88.1291 38.5129C88.0155 38.5872 87.8615 38.6244 87.6671 38.6244C87.4508 38.6244 87.2675 38.5855 87.1171 38.5076C86.9668 38.4261 86.8348 38.3128 86.7212 38.1677L86.2262 38.6457C86.4058 38.851 86.6057 39.005 86.8256 39.1077Z" fill="white"/>
<path d="M55.4524 39.2086V35.4749H56.2004V36.962H57.8779V35.4749H58.6259V39.2086H57.8779V37.5994H56.2004V39.2086H55.4524Z" fill="white"/>
<path d="M61.2037 39.2086V35.4749H63.8657V36.1123H61.9517V36.9939H63.7007V37.61H61.9517V38.5713H63.8932V39.2086H61.2037Z" fill="white"/>
<path d="M66.2997 35.4749V39.2086H68.8187V38.566H67.0477V35.4749H66.2997Z" fill="white"/>
<path fill-rule="evenodd" clip-rule="evenodd" d="M71.8913 39.2086V37.8224H72.6668C72.9125 37.8224 73.1325 37.7746 73.3268 37.679C73.5248 37.5834 73.6806 37.4489 73.7943 37.2754C73.908 37.0984 73.9648 36.8894 73.9648 36.6487C73.9648 36.4079 73.908 36.2008 73.7943 36.0273C73.6806 35.8502 73.5248 35.7139 73.3268 35.6183C73.1325 35.5227 72.9125 35.4749 72.6668 35.4749H71.1433V39.2086H71.8913ZM72.5898 37.2329H71.8913V36.0645H72.5898C72.7072 36.0645 72.8135 36.0875 72.9088 36.1335C73.0042 36.1795 73.0793 36.2468 73.1343 36.3353C73.1893 36.4238 73.2168 36.5283 73.2168 36.6487C73.2168 36.7726 73.1893 36.8788 73.1343 36.9673C73.0793 37.0523 73.0042 37.1178 72.9088 37.1639C72.8135 37.2099 72.7072 37.2329 72.5898 37.2329Z" fill="white"/>
<path d="M76.2824 35.4749V39.2086H78.9718V38.5713H77.0303V37.61H78.7793V36.9939H77.0303V36.1123H78.9443V35.4749H76.2824Z" fill="white"/>
<path fill-rule="evenodd" clip-rule="evenodd" d="M82.1264 39.2086V37.6472H82.2564L83.4904 39.2086H84.3979L83.1052 37.6345C83.2668 37.6156 83.4135 37.5756 83.5454 37.5144C83.736 37.4223 83.8827 37.2966 83.9854 37.1373C84.0917 36.9744 84.1449 36.7832 84.1449 36.5637C84.1449 36.3513 84.0917 36.1636 83.9854 36.0007C83.8827 35.8379 83.736 35.7104 83.5454 35.6183C83.3584 35.5227 83.1402 35.4749 82.8909 35.4749H81.3784V39.2086H82.1264ZM82.8249 37.0842H82.1264V36.0645H82.8249C83.0082 36.0645 83.1494 36.114 83.2484 36.2132C83.351 36.3088 83.4024 36.4292 83.4024 36.5743C83.4024 36.7337 83.351 36.8593 83.2484 36.9514C83.1494 37.0399 83.0082 37.0842 82.8249 37.0842Z" fill="white"/>
</svg>
