<svg width="52" height="57" viewBox="0 0 52 57" fill="none" xmlns="http://www.w3.org/2000/svg">
<path d="M32.9995 36C32.9995 37.1046 32.1041 38 30.9995 38C29.8949 38 28.9995 37.1046 28.9995 36C28.9995 34.8954 29.8949 34 30.9995 34C32.1041 34 32.9995 34.8954 32.9995 36Z" fill="#CF2C31"/>
<path d="M40.9995 44C40.9995 45.1046 40.1041 46 38.9995 46C37.8949 46 36.9995 45.1046 36.9995 44C36.9995 42.8954 37.8949 42 38.9995 42C40.1041 42 40.9995 42.8954 40.9995 44Z" fill="#CF2C31"/>
<path d="M30.9998 44L38.9998 36M19.9998 55H8.99425C4.43119 55 1.08803 50.7043 2.2086 46.281L7.97081 23.5354C8.87001 19.9859 12.0642 17.5 15.7258 17.5H23.9687C26.4614 17.5 28.763 18.8357 29.9998 21M23.9998 14C23.9998 12.3431 22.6566 11 20.9998 11H19.9998C18.3429 11 16.9998 12.3431 16.9998 14M49.9998 39.5C49.9998 48.0604 43.0602 55 34.4998 55C25.9394 55 18.9998 48.0604 18.9998 39.5C18.9998 30.9396 25.9394 24 34.4998 24C43.0602 24 49.9998 30.9396 49.9998 39.5ZM20.4998 9.5L15.9998 2H24.9998L20.4998 9.5Z" stroke="#CF2C31" stroke-width="3"/>
</svg>
